<svg width="261" height="56" viewBox="0 0 261 56" fill="none" xmlns="http://www.w3.org/2000/svg">
<path d="M13.2386 17.1818V20.5909H0.909091V17.1818H13.2386ZM4.28977 39V14.6534C4.28977 13.2898 4.58807 12.1581 5.18466 11.2585C5.78125 10.3494 6.57197 9.67235 7.55682 9.22727C8.54167 8.77273 9.61174 8.54545 10.767 8.54545C11.6193 8.54545 12.3485 8.61648 12.9545 8.75852C13.5606 8.8911 14.0104 9.0142 14.304 9.12784L13.3097 12.5653C13.1108 12.5085 12.8551 12.4422 12.5426 12.3665C12.2301 12.2812 11.8513 12.2386 11.4062 12.2386C10.3741 12.2386 9.63542 12.4943 9.19034 13.0057C8.75473 13.517 8.53693 14.2557 8.53693 15.2216V39H4.28977ZM17.6207 39V17.1818H21.7259V20.6477H21.9531C22.3509 19.4735 23.0516 18.5502 24.0554 17.8778C25.0687 17.196 26.2145 16.8551 27.4929 16.8551C27.758 16.8551 28.0705 16.8646 28.4304 16.8835C28.7997 16.9025 29.0885 16.9261 29.2969 16.9545V21.017C29.1264 20.9697 28.8234 20.9176 28.3878 20.8608C27.9522 20.7945 27.5166 20.7614 27.081 20.7614C26.0772 20.7614 25.1823 20.9744 24.3963 21.4006C23.6198 21.8172 23.0043 22.3996 22.5497 23.1477C22.0952 23.8864 21.8679 24.7292 21.8679 25.6761V39H17.6207ZM41.5945 39.4403C39.4448 39.4403 37.5935 38.9811 36.0405 38.0625C34.4969 37.1345 33.3037 35.8324 32.4609 34.1562C31.6276 32.4706 31.2109 30.4962 31.2109 28.233C31.2109 25.9981 31.6276 24.0284 32.4609 22.3239C33.3037 20.6193 34.478 19.2888 35.9837 18.3324C37.4988 17.3759 39.2696 16.8977 41.2962 16.8977C42.5272 16.8977 43.7204 17.1013 44.8757 17.5085C46.031 17.9157 47.0679 18.5549 47.9865 19.4261C48.9051 20.2973 49.6295 21.429 50.1598 22.821C50.6901 24.2036 50.9553 25.8845 50.9553 27.8636V29.3693H33.6115V26.1875H46.7933C46.7933 25.0701 46.5661 24.0805 46.1115 23.2188C45.657 22.3475 45.0178 21.661 44.1939 21.1591C43.3795 20.6572 42.4231 20.4062 41.3246 20.4062C40.1314 20.4062 39.0897 20.6998 38.1996 21.2869C37.3189 21.8646 36.6371 22.6222 36.1541 23.5597C35.6806 24.4877 35.4439 25.4962 35.4439 26.5852V29.071C35.4439 30.5294 35.6996 31.7699 36.2109 32.7926C36.7318 33.8153 37.4562 34.5966 38.3842 35.1364C39.3123 35.6667 40.3965 35.9318 41.6371 35.9318C42.442 35.9318 43.1759 35.8182 43.8388 35.5909C44.5017 35.3542 45.0746 35.0038 45.5575 34.5398C46.0405 34.0758 46.4098 33.5028 46.6655 32.821L50.6854 33.5455C50.3634 34.7292 49.7857 35.7661 48.9524 36.6562C48.1286 37.5369 47.0916 38.2235 45.8416 38.7159C44.6011 39.1989 43.1854 39.4403 41.5945 39.4403ZM65.071 39.4403C62.9214 39.4403 61.0701 38.9811 59.517 38.0625C57.9735 37.1345 56.7803 35.8324 55.9375 34.1562C55.1042 32.4706 54.6875 30.4962 54.6875 28.233C54.6875 25.9981 55.1042 24.0284 55.9375 22.3239C56.7803 20.6193 57.9545 19.2888 59.4602 18.3324C60.9754 17.3759 62.7462 16.8977 64.7727 16.8977C66.0038 16.8977 67.197 17.1013 68.3523 17.5085C69.5076 17.9157 70.5445 18.5549 71.4631 19.4261C72.3816 20.2973 73.1061 21.429 73.6364 22.821C74.1667 24.2036 74.4318 25.8845 74.4318 27.8636V29.3693H57.0881V26.1875H70.2699C70.2699 25.0701 70.0426 24.0805 69.5881 23.2188C69.1335 22.3475 68.4943 21.661 67.6705 21.1591C66.8561 20.6572 65.8996 20.4062 64.8011 20.4062C63.608 20.4062 62.5663 20.6998 61.6761 21.2869C60.7955 21.8646 60.1136 22.6222 59.6307 23.5597C59.1572 24.4877 58.9205 25.4962 58.9205 26.5852V29.071C58.9205 30.5294 59.1761 31.7699 59.6875 32.7926C60.2083 33.8153 60.9328 34.5966 61.8608 35.1364C62.7888 35.6667 63.8731 35.9318 65.1136 35.9318C65.9186 35.9318 66.6525 35.8182 67.3153 35.5909C67.9782 35.3542 68.5511 35.0038 69.0341 34.5398C69.517 34.0758 69.8864 33.5028 70.142 32.821L74.1619 33.5455C73.84 34.7292 73.2623 35.7661 72.429 36.6562C71.6051 37.5369 70.5682 38.2235 69.3182 38.7159C68.0777 39.1989 66.6619 39.4403 65.071 39.4403ZM95.4936 22.5085L91.6442 23.1903C91.4832 22.6979 91.2275 22.2292 90.8771 21.7841C90.5362 21.339 90.0722 20.9744 89.4851 20.6903C88.898 20.4062 88.1641 20.2642 87.2834 20.2642C86.0807 20.2642 85.0769 20.5341 84.272 21.0739C83.4671 21.6042 83.0646 22.2907 83.0646 23.1335C83.0646 23.8627 83.3345 24.4498 83.8743 24.8949C84.4141 25.34 85.2853 25.7045 86.4879 25.9886L89.9538 26.7841C91.9614 27.2481 93.4576 27.9631 94.4425 28.929C95.4273 29.8949 95.9197 31.1496 95.9197 32.6932C95.9197 34 95.541 35.1648 94.7834 36.1875C94.0353 37.2008 92.9889 37.9962 91.6442 38.5739C90.3089 39.1515 88.7607 39.4403 86.9993 39.4403C84.5561 39.4403 82.5627 38.9195 81.0192 37.8778C79.4756 36.8267 78.5286 35.3352 78.1783 33.4034L82.2834 32.7784C82.5391 33.8485 83.0646 34.6581 83.8601 35.2074C84.6555 35.7472 85.6925 36.017 86.9709 36.017C88.3629 36.017 89.4756 35.7282 90.3089 35.1506C91.1423 34.5634 91.5589 33.8485 91.5589 33.0057C91.5589 32.3239 91.3033 31.7509 90.7919 31.2869C90.29 30.8229 89.5182 30.4725 88.4766 30.2358L84.7834 29.4261C82.7474 28.9621 81.2417 28.2235 80.2663 27.2102C79.3004 26.197 78.8175 24.9138 78.8175 23.3608C78.8175 22.0729 79.1773 20.946 79.897 19.9801C80.6167 19.0142 81.611 18.2614 82.88 17.7216C84.1489 17.1723 85.6025 16.8977 87.2408 16.8977C89.5987 16.8977 91.4548 17.4091 92.8089 18.4318C94.1631 19.4451 95.058 20.804 95.4936 22.5085ZM110.774 17.1818V20.5909H98.8565V17.1818H110.774ZM102.053 11.9545H106.3V32.5938C106.3 33.4176 106.423 34.0379 106.669 34.4545C106.915 34.8617 107.232 35.1411 107.621 35.2926C108.018 35.4347 108.449 35.5057 108.913 35.5057C109.254 35.5057 109.553 35.482 109.808 35.4347C110.064 35.3873 110.263 35.3494 110.405 35.321L111.172 38.8295C110.926 38.9242 110.575 39.0189 110.121 39.1136C109.666 39.2178 109.098 39.2746 108.416 39.2841C107.299 39.303 106.257 39.1042 105.291 38.6875C104.325 38.2708 103.544 37.6269 102.947 36.7557C102.351 35.8845 102.053 34.7907 102.053 33.4744V11.9545ZM129.293 29.9517V17.1818H133.555V39H129.379V35.2216H129.151C128.649 36.3864 127.844 37.357 126.737 38.1335C125.638 38.9006 124.27 39.2841 122.631 39.2841C121.23 39.2841 119.989 38.9763 118.91 38.3608C117.84 37.7358 116.997 36.8125 116.381 35.5909C115.775 34.3693 115.472 32.8589 115.472 31.0597V17.1818H119.719V30.5483C119.719 32.035 120.131 33.2187 120.955 34.0994C121.779 34.9801 122.849 35.4205 124.165 35.4205C124.961 35.4205 125.752 35.2216 126.538 34.8239C127.333 34.4261 127.991 33.8248 128.512 33.0199C129.042 32.215 129.303 31.1922 129.293 29.9517ZM147.429 39.4261C145.668 39.4261 144.096 38.9763 142.713 38.0767C141.34 37.1676 140.26 35.875 139.474 34.1989C138.698 32.5133 138.31 30.4915 138.31 28.1335C138.31 25.7756 138.703 23.7585 139.489 22.0824C140.284 20.4062 141.373 19.1231 142.756 18.233C144.138 17.3428 145.705 16.8977 147.457 16.8977C148.812 16.8977 149.901 17.125 150.724 17.5795C151.558 18.0246 152.202 18.5455 152.656 19.142C153.12 19.7386 153.48 20.2642 153.736 20.7188H153.991V9.90909H158.239V39H154.091V35.6051H153.736C153.48 36.0691 153.111 36.5994 152.628 37.196C152.154 37.7926 151.501 38.3134 150.668 38.7585C149.834 39.2036 148.755 39.4261 147.429 39.4261ZM148.366 35.804C149.588 35.804 150.62 35.482 151.463 34.8381C152.315 34.1847 152.959 33.2803 153.395 32.125C153.84 30.9697 154.062 29.625 154.062 28.0909C154.062 26.5758 153.845 25.25 153.409 24.1136C152.973 22.9773 152.334 22.0919 151.491 21.4574C150.649 20.8229 149.607 20.5057 148.366 20.5057C147.088 20.5057 146.023 20.8371 145.17 21.5C144.318 22.1629 143.674 23.0672 143.239 24.2131C142.813 25.3589 142.599 26.6515 142.599 28.0909C142.599 29.5492 142.817 30.8608 143.253 32.0256C143.688 33.1903 144.332 34.1136 145.185 34.7955C146.046 35.4678 147.107 35.804 148.366 35.804ZM164.3 39V17.1818H168.548V39H164.3ZM166.445 13.8153C165.707 13.8153 165.072 13.5691 164.542 13.0767C164.021 12.5748 163.761 11.9782 163.761 11.2869C163.761 10.5862 164.021 9.98958 164.542 9.49716C165.072 8.99526 165.707 8.74432 166.445 8.74432C167.184 8.74432 167.814 8.99526 168.335 9.49716C168.865 9.98958 169.13 10.5862 169.13 11.2869C169.13 11.9782 168.865 12.5748 168.335 13.0767C167.814 13.5691 167.184 13.8153 166.445 13.8153ZM183.452 39.4403C181.406 39.4403 179.621 38.9716 178.097 38.0341C176.572 37.0966 175.388 35.785 174.545 34.0994C173.703 32.4138 173.281 30.4441 173.281 28.1903C173.281 25.9271 173.703 23.9479 174.545 22.2528C175.388 20.5578 176.572 19.2415 178.097 18.304C179.621 17.3665 181.406 16.8977 183.452 16.8977C185.497 16.8977 187.282 17.3665 188.807 18.304C190.331 19.2415 191.515 20.5578 192.358 22.2528C193.201 23.9479 193.622 25.9271 193.622 28.1903C193.622 30.4441 193.201 32.4138 192.358 34.0994C191.515 35.785 190.331 37.0966 188.807 38.0341C187.282 38.9716 185.497 39.4403 183.452 39.4403ZM183.466 35.875C184.792 35.875 185.89 35.5246 186.761 34.8239C187.633 34.1231 188.277 33.1903 188.693 32.0256C189.119 30.8608 189.332 29.5777 189.332 28.1761C189.332 26.7841 189.119 25.5057 188.693 24.3409C188.277 23.1667 187.633 22.2244 186.761 21.5142C185.89 20.804 184.792 20.4489 183.466 20.4489C182.131 20.4489 181.023 20.804 180.142 21.5142C179.271 22.2244 178.622 23.1667 178.196 24.3409C177.779 25.5057 177.571 26.7841 177.571 28.1761C177.571 29.5777 177.779 30.8608 178.196 32.0256C178.622 33.1903 179.271 34.1231 180.142 34.8239C181.023 35.5246 182.131 35.875 183.466 35.875Z" fill="#027373"/>
<path d="M207.095 29.2316L205.203 25.1122L208.174 20.9417L210.545 25.4389L212.313 29.953L207.095 29.2316Z" fill="#027373"/>
<path d="M213.237 29.9703L208.743 20.1867L219.335 15.3219L223.829 25.1055L213.237 29.9703Z" fill="#027373"/>
<path d="M224.333 24.8738L219.721 14.8327L227.003 2.75888L238 26.7031L224.333 24.8738Z" fill="#027373"/>
<path d="M230.533 1.13726C228.175 -0.273806 227.365 1.55317 227.255 2.64305L238.614 26.725C241.067 28.342 241.654 26.4721 241.641 25.335L230.533 1.13726Z" fill="#027373"/>
<path d="M226.479 38.8537L215.995 29.327L221.039 27.0104L229.063 35.1724C230.482 38.262 227.931 38.914 226.479 38.8537Z" fill="#027373"/>
</svg>
